HIERARCHY
ROOT Hips
{
	OFFSET 0.000000 87.504524 0.000000
	CHANNELS 6 Xposition Yposition Zposition Xrotation Yrotation Zrotation 
	JOINT Spine
	{
		OFFSET 0.001100 9.599998 0.094300
		CHANNELS 3 Xrotation Yrotation Zrotation
		JOINT Spine1
		{
			OFFSET -0.003433 5.251266 -0.539667
			CHANNELS 3 Xrotation Yrotation Zrotation
			JOINT Spine1_split
			{
				OFFSET -0.003433 5.251266 -0.539667
				CHANNELS 3 Xrotation Yrotation Zrotation
				JOINT Spine2
				{
					OFFSET -0.003433 5.251266 -0.539667
					CHANNELS 3 Xrotation Yrotation Zrotation
					JOINT Neck
					{
						OFFSET -0.002300 14.090302 -2.521900
						CHANNELS 3 Xrotation Yrotation Zrotation
						JOINT Head
						{
							OFFSET -0.001200 9.247604 1.716000
							CHANNELS 3 Xrotation Yrotation Zrotation
							JOINT RightEye
							{
								OFFSET -4.010300 6.772202 8.508900
								CHANNELS 3 Xrotation Yrotation Zrotation
								End Site
								{
									OFFSET 0.000000 0.000000 0.000000
								}
							}
							JOINT LeftEye
							{
								OFFSET 4.034300 6.773102 8.509900
								CHANNELS 3 Xrotation Yrotation Zrotation
								End Site
								{
									OFFSET 0.000000 0.000000 0.000000
								}
							}
							JOINT HeadTop_End
							{
								OFFSET 0.013900 20.179199 0.910500
								CHANNELS 3 Xrotation Yrotation Zrotation
								End Site
								{
									OFFSET 0.000000 0.000000 0.000000
								}
							}
						}
					}
					JOINT LeftShoulder
					{
						OFFSET 2.131900 4.531349 -1.307950
						CHANNELS 3 Xrotation Yrotation Zrotation
						JOINT LeftShoulder_split
						{
							OFFSET 2.131900 4.531349 -1.307950
							CHANNELS 3 Xrotation Yrotation Zrotation
							JOINT LeftArm
							{
								OFFSET 8.542917 -0.284554 -2.446300
								CHANNELS 3 Xrotation Yrotation Zrotation
								JOINT LeftForeArm
								{
									OFFSET 25.028389 0.000000 0.000000
									CHANNELS 3 Xrotation Yrotation Zrotation
									JOINT LeftHand
									{
										OFFSET 21.425957 0.000000 0.000000
										CHANNELS 3 Xrotation Yrotation Zrotation
										JOINT LeftHandThumb1
										{
											OFFSET 2.183620 -1.612679 2.463708
											CHANNELS 3 Xrotation Yrotation Zrotation
											JOINT LeftHandThumb2
											{
												OFFSET 3.060406 -1.766930 1.766928
												CHANNELS 3 Xrotation Yrotation Zrotation
												JOINT LeftHandThumb3
												{
													OFFSET 2.453537 -1.416550 1.416552
													CHANNELS 3 Xrotation Yrotation Zrotation
													JOINT LeftHandThumb4
													{
														OFFSET 1.970108 -1.137444 1.137441
														CHANNELS 3 Xrotation Yrotation Zrotation
														End Site
														{
															OFFSET 0.000000 0.000000 0.000000
														}
													}
												}
											}
										}
										JOINT LeftHandIndex1
										{
											OFFSET 8.597389 -0.447151 2.250940
											CHANNELS 3 Xrotation Yrotation Zrotation
											JOINT LeftHandIndex2
											{
												OFFSET 3.455048 0.000000 0.000000
												CHANNELS 3 Xrotation Yrotation Zrotation
												JOINT LeftHandIndex3
												{
													OFFSET 2.575081 0.000000 0.000000
													CHANNELS 3 Xrotation Yrotation Zrotation
													JOINT LeftHandIndex4
													{
														OFFSET 2.516663 0.000000 0.000000
														CHANNELS 3 Xrotation Yrotation Zrotation
														End Site
														{
															OFFSET 0.000000 0.000000 0.000000
														}
													}
												}
											}
										}
										JOINT LeftHandMiddle1
										{
											OFFSET 9.035995 0.000000 0.000000
											CHANNELS 3 Xrotation Yrotation Zrotation
											JOINT LeftHandMiddle2
											{
												OFFSET 3.236847 0.000000 0.000000
												CHANNELS 3 Xrotation Yrotation Zrotation
												JOINT LeftHandMiddle3
												{
													OFFSET 2.697258 0.000000 0.000000
													CHANNELS 3 Xrotation Yrotation Zrotation
													JOINT LeftHandMiddle4
													{
														OFFSET 2.978371 0.000000 0.000000
														CHANNELS 3 Xrotation Yrotation Zrotation
														End Site
														{
															OFFSET 0.000000 0.000000 0.000000
														}
													}
												}
											}
										}
										JOINT LeftHandRing1
										{
											OFFSET 8.534821 -0.031822 -1.914376
											CHANNELS 3 Xrotation Yrotation Zrotation
											JOINT LeftHandRing2
											{
												OFFSET 2.715118 0.000000 0.000000
												CHANNELS 3 Xrotation Yrotation Zrotation
												JOINT LeftHandRing3
												{
													OFFSET 2.740189 0.000000 0.000000
													CHANNELS 3 Xrotation Yrotation Zrotation
													JOINT LeftHandRing4
													{
														OFFSET 2.726570 0.000000 0.000000
														CHANNELS 3 Xrotation Yrotation Zrotation
														End Site
														{
															OFFSET 0.000000 0.000000 0.000000
														}
													}
												}
											}
										}
										JOINT LeftHandPinky1
										{
											OFFSET 7.561172 -0.428123 -3.773051
											CHANNELS 3 Xrotation Yrotation Zrotation
											JOINT LeftHandPinky2
											{
												OFFSET 2.996750 0.000000 0.000000
												CHANNELS 3 Xrotation Yrotation Zrotation
												JOINT LeftHandPinky3
												{
													OFFSET 1.748390 0.000000 0.000000
													CHANNELS 3 Xrotation Yrotation Zrotation
													JOINT LeftHandPinky4
													{
														OFFSET 2.147675 0.000000 0.000000
														CHANNELS 3 Xrotation Yrotation Zrotation
														End Site
														{
															OFFSET 0.000000 0.000000 0.000000
														}
													}
												}
											}
										}
									}
								}
							}
						}
					}
					JOINT RightShoulder
					{
						OFFSET -2.137950 4.533851 -1.303000
						CHANNELS 3 Xrotation Yrotation Zrotation
						JOINT RightShoulder_split
						{
							OFFSET -2.137950 4.533851 -1.303000
							CHANNELS 3 Xrotation Yrotation Zrotation
							JOINT RightArm
							{
								OFFSET -8.497777 -0.288513 -2.404000
								CHANNELS 3 Xrotation Yrotation Zrotation
								JOINT RightForeArm
								{
									OFFSET -25.120413 0.000000 0.000000
									CHANNELS 3 Xrotation Yrotation Zrotation
									JOINT RightHand
									{
										OFFSET -21.438847 0.000000 0.000000
										CHANNELS 3 Xrotation Yrotation Zrotation
										JOINT RightHandPinky1
										{
											OFFSET -7.562275 -0.427437 -3.769875
											CHANNELS 3 Xrotation Yrotation Zrotation
											JOINT RightHandPinky2
											{
												OFFSET -2.998131 0.000000 0.000000
												CHANNELS 3 Xrotation Yrotation Zrotation
												JOINT RightHandPinky3
												{
													OFFSET -1.749687 0.000000 0.000000
													CHANNELS 3 Xrotation Yrotation Zrotation
													JOINT RightHandPinky4
													{
														OFFSET -2.148170 0.000000 0.000000
														CHANNELS 3 Xrotation Yrotation Zrotation
														End Site
														{
															OFFSET 0.000000 0.000000 0.000000
														}
													}
												}
											}
										}
										JOINT RightHandRing1
										{
											OFFSET -8.532116 -0.031250 -1.913905
											CHANNELS 3 Xrotation Yrotation Zrotation
											JOINT RightHandRing2
											{
												OFFSET -2.715736 0.000000 0.000000
												CHANNELS 3 Xrotation Yrotation Zrotation
												JOINT RightHandRing3
												{
													OFFSET -2.740326 0.000000 0.000000
													CHANNELS 3 Xrotation Yrotation Zrotation
													JOINT RightHandRing4
													{
														OFFSET -2.731010 0.000000 0.000000
														CHANNELS 3 Xrotation Yrotation Zrotation
														End Site
														{
															OFFSET 0.000000 0.000000 0.000000
														}
													}
												}
											}
										}
										JOINT RightHandMiddle1
										{
											OFFSET -9.033978 0.000000 0.000000
											CHANNELS 3 Xrotation Yrotation Zrotation
											JOINT RightHandMiddle2
											{
												OFFSET -3.236504 0.000000 0.000000
												CHANNELS 3 Xrotation Yrotation Zrotation
												JOINT RightHandMiddle3
												{
													OFFSET -2.697426 0.000000 0.000000
													CHANNELS 3 Xrotation Yrotation Zrotation
													JOINT RightHandMiddle4
													{
														OFFSET -2.979362 0.000000 0.000000
														CHANNELS 3 Xrotation Yrotation Zrotation
														End Site
														{
															OFFSET 0.000000 0.000000 0.000000
														}
													}
												}
											}
										}
										JOINT RightHandIndex1
										{
											OFFSET -8.597958 -0.445679 2.254358
											CHANNELS 3 Xrotation Yrotation Zrotation
											JOINT RightHandIndex2
											{
												OFFSET -3.452332 0.000000 0.000000
												CHANNELS 3 Xrotation Yrotation Zrotation
												JOINT RightHandIndex3
												{
													OFFSET -2.573807 0.000000 0.000000
													CHANNELS 3 Xrotation Yrotation Zrotation
													JOINT RightHandIndex4
													{
														OFFSET -2.514305 0.000000 0.000000
														CHANNELS 3 Xrotation Yrotation Zrotation
														End Site
														{
															OFFSET 0.000000 0.000000 0.000000
														}
													}
												}
											}
										}
										JOINT RightHandThumb1
										{
											OFFSET -2.181553 -1.609207 2.465017
											CHANNELS 3 Xrotation Yrotation Zrotation
											JOINT RightHandThumb2
											{
												OFFSET -3.060669 -1.767075 1.767078
												CHANNELS 3 Xrotation Yrotation Zrotation
												JOINT RightHandThumb3
												{
													OFFSET -2.453690 -1.416634 1.416637
													CHANNELS 3 Xrotation Yrotation Zrotation
													JOINT RightHandThumb4
													{
														OFFSET -1.968048 -1.136253 1.136253
														CHANNELS 3 Xrotation Yrotation Zrotation
														End Site
														{
															OFFSET 0.000000 0.000000 0.000000
														}
													}
												}
											}
										}
									}
								}
							}
						}
					}
				}
			}
		}
	}
	JOINT LeftUpLeg
	{
		OFFSET 6.905600 -6.396599 -1.128100
		CHANNELS 3 Xrotation Yrotation Zrotation
		JOINT LeftLeg
		{
			OFFSET 0.129751 -36.239845 -3.217900
			CHANNELS 3 Xrotation Yrotation Zrotation
			JOINT LeftFoot
			{
				OFFSET -0.129751 -35.289726 -6.323300
				CHANNELS 3 Xrotation Yrotation Zrotation
				JOINT LeftToeBase
				{
					OFFSET -0.641300 -8.865100 8.863300
					CHANNELS 3 Xrotation Yrotation Zrotation
					JOINT LeftToe_End
					{
						OFFSET 0.323400 0.034900 8.662100
						CHANNELS 3 Xrotation Yrotation Zrotation
						End Site
						{
							OFFSET 0.000000 0.000000 0.000000
						}
					}
				}
			}
		}
	}
	JOINT RightUpLeg
	{
		OFFSET -6.898800 -6.384697 -1.128300
		CHANNELS 3 Xrotation Yrotation Zrotation
		JOINT RightLeg
		{
			OFFSET -0.123096 -36.253479 -3.215000
			CHANNELS 3 Xrotation Yrotation Zrotation
			JOINT RightFoot
			{
				OFFSET 0.123096 -35.288391 -6.329800
				CHANNELS 3 Xrotation Yrotation Zrotation
				JOINT RightToeBase
				{
					OFFSET 0.646300 -8.869000 8.859100
					CHANNELS 3 Xrotation Yrotation Zrotation
					JOINT RightToe_End
					{
						OFFSET -0.329000 0.024100 8.659100
						CHANNELS 3 Xrotation Yrotation Zrotation
						End Site
						{
							OFFSET 0.000000 0.000000 0.000000
						}
					}
				}
			}
		}
	}
}
MOTION
Frames: 4
Frame Time: 0.016667
-5.367522 113.530418 13.174887 -183.490641 10.757007 8.797977 12.484196 0.418559 0.254487 24.966715 1.182313 0.474934 0.000000 0.000000 0.000000 24.966691 1.182316 0.474934 -29.260585 -4.459682 -3.206457 -33.644009 -10.451749 -1.837641 0.000000 -0.000000 0.000000 0.000000 -0.000000 0.000000 0.000000 -0.000000 0.000000 -3.549896 -36.482848 -14.153473 0.000000 0.000000 0.000000 -14.403614 1.611742 -13.031412 -35.269273 -65.490012 -38.300948 -18.419658 -15.326383 -6.795585 -6.265457 6.388638 -0.134634 -0.740796 0.403315 0.346489 -0.000005 -0.000008 0.000002 -0.000001 -0.000001 0.000001 1.152566 -0.881223 -42.012323 -1.573179 -0.242378 -30.400093 -0.000005 0.000003 -0.000001 -0.000001 -0.000003 -0.000003 -0.601795 -3.319730 -42.404874 -1.885809 -1.660956 -27.789694 0.000004 0.000003 0.000002 -0.000002 -0.000001 -0.000000 -4.390746 -0.215018 -43.231925 0.338537 -2.488376 -23.072061 0.000002 -0.000001 0.000007 -0.000002 0.000002 -0.000000 -8.245915 0.211296 -42.331013 0.447303 -6.154204 -26.247244 -0.000001 0.000005 0.000004 0.000001 0.000000 0.000000 0.237260 25.113272 6.770767 0.000000 0.000000 0.000000 -25.801895 2.849814 26.441819 -15.838585 68.833458 23.081837 -21.094001 -8.264790 9.224649 -2.093412 6.022174 39.898243 -2.016754 8.071223 21.228040 -0.000006 -0.000006 0.000012 -0.000001 -0.000001 -0.000000 -5.260098 2.696891 45.340373 0.986033 4.193953 25.788368 -0.000000 0.000000 0.000003 -0.000002 -0.000002 0.000001 -4.563845 0.435969 44.412052 -3.265067 0.663947 36.658281 -0.000004 -0.000002 -0.000001 0.000005 0.000001 -0.000002 -1.103341 -0.590580 49.798732 -2.603975 0.051124 41.872130 0.000007 0.000001 -0.000007 -0.000003 0.000003 -0.000000 -1.809027 -3.734744 12.607401 20.899254 -5.942026 -8.330806 0.000002 0.000010 0.000007 -0.000000 -0.000002 -0.000002 -90.192621 2.633167 10.279418 122.754537 -11.794891 -2.834260 -5.831714 1.577463 -5.017954 0.443007 2.038928 -1.574627 -0.000001 0.000001 0.000001 -93.571263 9.638665 6.728035 114.019128 -4.432500 -5.644039 13.074387 6.949343 14.211577 -7.065218 -7.189737 6.782767 -0.000000 -0.000000 0.000001 
-5.323411 114.581581 14.426837 -193.958904 9.084397 10.517834 12.969277 0.786558 0.689397 25.939682 1.543142 0.851891 0.000000 0.000000 0.000000 25.939669 1.543154 0.851891 -26.063495 -4.207250 -3.917369 -33.491559 -9.982505 -1.605779 0.000000 -0.000000 -0.000000 0.000000 -0.000000 -0.000000 0.000000 -0.000000 -0.000000 -3.541400 -36.698548 -13.876649 0.000000 0.000000 0.000000 -14.405127 3.875615 -12.015813 -46.562865 -67.673624 -48.548995 -20.789656 -15.665001 -8.031646 -6.412508 6.014086 0.896003 -0.756385 0.378968 0.340779 -0.000004 -0.000008 0.000002 0.000002 -0.000003 0.000002 1.167342 -1.087356 -41.257775 -1.584815 -0.260813 -30.571070 -0.000011 0.000008 -0.000001 -0.000001 -0.000000 -0.000000 -0.665613 -3.282599 -42.616740 -1.894556 -1.679018 -27.946411 0.000003 -0.000000 0.000001 0.000002 -0.000001 -0.000001 -4.321623 -0.121246 -42.097741 0.323746 -2.521968 -23.708898 -0.000001 -0.000001 0.000008 -0.000001 0.000001 -0.000000 -8.189573 0.411626 -41.784475 0.451183 -6.146108 -25.943331 0.000002 0.000003 0.000003 -0.000000 -0.000001 -0.000000 0.446774 24.928597 5.798579 0.000000 0.000000 0.000000 -25.970681 1.382154 22.615991 -20.639642 70.506554 26.397892 -22.901226 -8.208008 9.359648 -2.657566 4.703431 38.663362 -1.318732 8.313365 21.133054 -0.000010 -0.000008 0.000015 -0.000001 -0.000001 0.000001 -5.174948 2.558450 43.834925 0.915860 4.334047 27.665531 -0.000001 0.000001 -0.000002 0.000003 -0.000001 0.000001 -4.315457 0.345992 44.086132 -3.168111 0.529077 34.687771 0.000000 -0.000002 -0.000003 0.000002 0.000002 0.000000 -1.093275 -0.490651 48.811260 -2.608439 0.043678 41.789645 -0.000000 0.000004 -0.000010 -0.000002 -0.000002 0.000001 -4.931048 -5.109507 12.176495 20.842725 -5.799920 -8.329144 0.000002 0.000018 0.000006 -0.000000 -0.000000 0.000001 -95.815430 3.303865 11.629748 128.032647 -9.360609 -2.160751 -5.515321 1.384796 -4.531426 0.433167 1.952702 -1.506077 -0.000001 0.000001 -0.000000 -95.168987 7.858891 2.894130 115.230045 -1.844926 -5.736159 12.455717 6.882657 16.154068 -5.371441 -6.776682 6.591804 -0.000001 -0.000000 0.000001 
-5.216704 115.616745 15.547852 -203.718998 6.582956 11.834119 13.187582 1.298769 1.051298 26.386313 1.923329 1.016601 0.000000 0.000000 0.000000 26.386310 1.923331 1.016601 -22.660047 -4.179119 -4.027995 -32.854894 -9.257601 -1.281542 -0.000000 0.000000 0.000000 -0.000000 0.000000 0.000000 -0.000000 0.000000 0.000000 -3.325432 -36.727447 -13.056195 0.000000 0.000000 0.000000 -13.882334 6.179473 -12.509559 -58.520180 -69.332622 -59.837887 -22.530532 -16.681564 -9.634935 -6.873539 5.612295 1.781373 -0.784158 0.327822 0.330707 -0.000006 -0.000013 -0.000000 -0.000001 0.000002 0.000000 1.154054 -1.289898 -39.960578 -1.597135 -0.280712 -30.753429 -0.000010 0.000005 -0.000003 -0.000000 -0.000000 -0.000002 -0.671312 -3.229697 -42.304044 -1.910221 -1.709694 -28.216451 0.000004 0.000003 0.000003 0.000000 -0.000000 0.000001 -4.207543 -0.045287 -40.825649 0.307169 -2.560680 -24.462375 0.000002 -0.000001 0.000007 0.000001 -0.000001 0.000002 -8.033871 0.622576 -40.779709 0.459948 -6.135865 -25.661185 -0.000001 0.000005 0.000003 -0.000000 -0.000000 -0.000000 0.659532 24.903420 4.748937 0.000000 0.000000 0.000000 -25.644820 -0.178730 19.367541 -23.431819 71.547994 28.091089 -23.890805 -7.314801 9.898703 -3.319968 3.555021 37.685056 -0.637631 8.545984 21.168465 -0.000005 -0.000007 0.000013 0.000000 -0.000001 -0.000000 -5.127320 2.499382 42.604493 0.837210 4.477138 29.599024 0.000000 0.000001 -0.000000 0.000002 0.000000 -0.000000 -4.087016 0.259103 43.905481 -3.074702 0.388856 32.716613 0.000001 -0.000002 0.000001 -0.000002 0.000000 -0.000001 -1.099033 -0.510947 47.642188 -2.623045 0.054205 41.935808 0.000002 0.000002 -0.000001 -0.000000 -0.000000 -0.000002 -7.955054 -6.346638 11.596237 20.813398 -5.710911 -8.319237 0.000003 0.000014 -0.000000 0.000002 0.000001 -0.000002 -103.416659 2.777002 12.107858 131.209860 -6.176932 -1.566962 -2.416653 0.914970 -2.116834 0.669061 3.109380 -2.415873 0.000000 0.000002 -0.000000 -97.558454 6.250849 0.309977 114.669287 1.425046 -5.784023 15.319006 6.114479 14.092200 -5.769780 -8.318747 7.748554 -0.000000 -0.000000 0.000001 
-4.893246 116.079948 16.340439 -213.296836 4.213704 13.264588 13.168775 1.659935 1.040564 26.354350 2.214530 0.912998 0.000000 0.000000 0.000000 26.354352 2.214532 0.912999 -19.055033 -4.305527 -3.515698 -31.769088 -8.334792 -0.892088 -0.000001 0.000000 -0.000000 -0.000001 0.000000 -0.000000 -0.000001 0.000000 -0.000000 -2.860006 -36.402135 -11.577555 0.000000 0.000000 0.000000 -12.910156 8.402570 -14.465405 -70.507435 -70.564863 -71.299095 -23.531679 -18.081182 -10.968190 -7.598917 5.353652 2.524629 -0.784072 0.327801 0.329231 -0.000004 -0.000008 -0.000002 0.000001 -0.000001 0.000003 1.125165 -1.394034 -38.711279 -1.611140 -0.303750 -30.968139 -0.000010 0.000004 -0.000003 -0.000001 0.000000 0.000002 -0.659766 -3.181957 -41.769629 -1.932012 -1.750944 -28.598974 0.000004 0.000000 0.000004 -0.000002 0.000001 0.000000 -4.099972 -0.037524 -39.641055 0.288943 -2.604167 -25.300863 0.000005 -0.000000 0.000007 0.000001 0.000000 0.000000 -7.831451 0.706744 -39.449315 0.473512 -6.124143 -25.357491 -0.000001 0.000004 0.000005 0.000000 -0.000000 0.000002 0.809310 24.955027 3.965957 0.000000 0.000000 0.000000 -24.985052 -1.609812 17.529971 -23.257933 72.177771 27.076065 -23.595365 -5.652387 10.043656 -4.051523 2.623407 37.027463 -0.013850 8.773004 21.282543 -0.000005 -0.000004 0.000015 0.000000 0.000000 -0.000000 -5.132281 2.508109 41.687278 0.756734 4.612213 31.436540 -0.000002 0.000000 0.000001 0.000001 -0.000001 0.000001 -3.886945 0.166458 43.845897 -2.989936 0.252219 30.892345 0.000000 -0.000003 -0.000001 -0.000001 0.000001 -0.000000 -1.092515 -0.648300 46.468075 -2.652160 0.085756 42.362773 0.000004 0.000002 -0.000006 -0.000001 -0.000002 0.000002 -10.678594 -7.304844 10.815695 20.816021 -5.688342 -8.298011 0.000001 0.000018 0.000005 -0.000003 0.000002 0.000002 -112.149063 2.898313 15.364389 131.896226 -7.692989 -2.008764 2.223335 3.029499 -9.552137 -0.210891 2.165847 -1.769475 0.000001 0.000000 0.000000 -98.961668 6.388677 -1.471334 112.211450 3.079190 -5.844357 17.043311 5.952870 12.873424 -6.347723 -8.449963 7.665269 -0.000000 -0.000000 -0.000002 
